<?xml version="1.0" encoding="UTF-8" standalone="no"?>
<svg xmlns:dc="http://purl.org/dc/elements/1.1/" xmlns:cc="http://creativecommons.org/ns#" xmlns:rdf="http://www.w3.org/1999/02/22-rdf-syntax-ns#" xmlns:svg="http://www.w3.org/2000/svg" xmlns="http://www.w3.org/2000/svg" xmlns:xlink="http://www.w3.org/1999/xlink" xmlns:sodipodi="http://sodipodi.sourceforge.net/DTD/sodipodi-0.dtd" xmlns:inkscape="http://www.inkscape.org/namespaces/inkscape" width="16" height="16" viewBox="0 0 16 16" id="svg5442" version="1.1" inkscape:version="0.91 r13725" sodipodi:docname="play,next,forward,replay.svg">
  <defs id="defs5444">
    <linearGradient inkscape:collect="always" xlink:href="#linearGradient5629" id="linearGradient5898-3" gradientUnits="userSpaceOnUse" gradientTransform="matrix(0,0.9514335,-0.9514335,0,952.8744,1824.255)" x1="-819.49994" y1="1000.4645" x2="-819.49994" y2="992.05542"/>
    <linearGradient inkscape:collect="always" id="linearGradient5629">
      <stop style="stop-color:#fefefe;stop-opacity:1" offset="0" id="stop5631"/>
      <stop style="stop-color:#ffffff;stop-opacity:1" offset="1" id="stop5633"/>
    </linearGradient>
  </defs>
  <sodipodi:namedview id="base" pagecolor="#ffffff" bordercolor="#666666" borderopacity="1.0" inkscape:pageopacity="0.0" inkscape:pageshadow="2" inkscape:zoom="15.839192" inkscape:cx="0.72039797" inkscape:cy="5.6859622" inkscape:document-units="px" inkscape:current-layer="layer1" showgrid="true" units="px" inkscape:snap-bbox="true" inkscape:bbox-nodes="true" inkscape:bbox-paths="true" inkscape:snap-bbox-edge-midpoints="true" inkscape:snap-bbox-midpoints="true" inkscape:window-width="1366" inkscape:window-height="705" inkscape:window-x="-8" inkscape:window-y="-8" inkscape:window-maximized="1">
    <inkscape:grid type="xygrid" id="grid5450"/>
  </sodipodi:namedview>
  
  <g inkscape:label="Layer 1" inkscape:groupmode="layer" id="layer1" transform="translate(0,-1036.3622)">
    <path id="path5888-3" d="m 12.999714,1044.5213 a 0.47571676,0.47571676 0 0 0 -0.2193,-0.3673 c 2.8e-4,0 -3e-4,0 0,0 l -9.0713601,-5.3609 c -0.002,8e-4 -0.002,0 -0.004,0 a 0.47571676,0.47571676 0 0 0 -0.46787,0 0.47571676,0.47571676 0 0 0 -0.23718,0.4127 l 0,10.6928 0,0 a 0.47571676,0.47571676 0 0 0 0.23718,0.403 0.47571676,0.47571676 0 0 0 0.46461,0 c 0.002,10e-4 0.004,0 0.004,0 l 9.0599801,-5.3545 c 1.6e-4,0 -1.8e-4,0 0,0 a 0.47571676,0.47571676 0 0 0 0.23392,-0.4094 0.47571676,0.47571676 0 0 0 0,-0.034 z" style="fill:url(#linearGradient5898-3);fill-opacity:1;fill-rule:evenodd;stroke:none;stroke-width:1px;stroke-linecap:butt;stroke-linejoin:miter;stroke-opacity:1" inkscape:connector-curvature="0"/>
  </g>

	
	<metadata>
		<rdf:RDF xmlns:rdf="http://www.w3.org/1999/02/22-rdf-syntax-ns#" xmlns:rdfs="http://www.w3.org/2000/01/rdf-schema#" xmlns:dc="http://purl.org/dc/elements/1.1/">
			<rdf:Description about="https://iconscout.com/legal#licenses" dc:title="Play, Next, Forward, Replay" dc:description="Play, Next, Forward, Replay" dc:publisher="Iconscout" dc:date="2016-12-14" dc:format="image/svg+xml" dc:language="en">
				<dc:creator>
					<rdf:Bag>
						<rdf:li>Chamestudio</rdf:li>
					</rdf:Bag>
				</dc:creator>
			</rdf:Description>
		</rdf:RDF>
    </metadata></svg>
