<?xml version="1.0" encoding="UTF-8"?>
<svg width="34px" height="30px" viewBox="0 0 34 30" version="1.1" xmlns="http://www.w3.org/2000/svg" xmlns:xlink="http://www.w3.org/1999/xlink">
    <title>Search</title>
    <g id="Pages" stroke="none" stroke-width="1" fill="none" fill-rule="evenodd">
        <g id="Icon-Nav" transform="translate(-262.000000, -64.000000)" fill="#ffffff">
            <g id="Shopping-Cart" transform="translate(262.999996, 65.000000)">
                <path d="M29.7524743,10.0218862 L25.9613847,9.99066666 L26.4065229,6.73447143 L26.4065229,6.57785354 L30.6960841,6.73447143 L29.7524743,10.0218862 Z M28.7555312,13.4346993 L25.4847668,13.528618 L25.8586205,10.8986342 L29.5032385,10.8674147 L28.7555312,13.4346993 Z M27.9768645,16.1583417 C27.7900677,16.7533336 27.2606368,17.2229271 26.6063278,17.2541466 L24.9550757,17.4107645 L25.3604091,14.4365855 L28.5065555,14.3111871 L27.9768645,16.1583417 Z M21.418165,9.92796747 L21.4634333,6.51541451 L21.4634333,6.42149581 L25.3658725,6.54663402 L25.3658725,6.60933321 L24.9183928,9.95918699 L21.418165,9.92796747 Z M24.5190432,13.5741465 L21.3728968,13.64387 L21.4038561,10.9272521 L24.7994985,10.9272521 L24.5190432,13.5741465 Z M24.0650594,17.3168458 L24.0650594,17.4737238 L21.2032707,17.6925206 L21.2032707,17.6610409 L21.3034333,14.5929432 L24.3663277,14.467805 L24.0650594,17.3168458 Z M17.5609942,17.9742767 L17.5609942,17.9118377 L17.3096771,14.749301 L20.4227829,14.6244229 L20.4227829,17.6610409 L20.4227829,17.7552198 L17.5609942,17.9742767 Z M17.003986,10.9298537 L20.4227829,10.8986342 L20.4227829,13.6534961 L17.264669,13.7164554 L17.003986,10.9298537 Z M16.5833031,6.26513808 L20.4227829,6.39001613 L20.4227829,6.48393484 L20.4147179,9.92796747 L16.9259372,9.89674796 L16.5833031,6.26513808 Z M13.9678884,18.2875125 L13.9322461,18.1623743 L13.3070753,14.906179 L16.3985876,14.8122603 L16.7805064,18.0057564 L16.7805064,18.0681954 L13.9678884,18.2875125 Z M11.4045062,22.8947321 L9.16138414,22.8947321 C10.2207663,21.5939191 10.4385224,20.4970735 10.4385224,19.7145044 L14.581612,19.3945044 C13.647368,21.1794801 12.5879859,22.1142443 11.4045062,22.8947321 L11.4045062,22.8947321 Z M9.0058069,15.0940164 L12.3702298,14.9686181 L13.0864574,18.3502117 L10.1895468,18.5690084 C10.0961484,18.2875125 9.62863619,17.0038702 9.0058069,15.0940164 L9.0058069,15.0940164 Z M8.63195323,13.9186018 C8.32053858,13.0103741 8.00886377,11.9679025 7.6350101,10.9272521 L11.466685,10.9272521 L12.120994,13.8158375 L8.63195323,13.9186018 Z M7.26115643,9.88660162 L5.98401818,5.9623088 L10.4073029,6.06663401 L10.4700021,6.27554458 L11.2484086,9.88087804 L7.29237594,9.88660162 L7.26115643,9.88660162 Z M15.4796933,6.2336584 L15.4796933,6.39001613 L15.8405388,9.86526828 L12.3608639,9.83404877 L11.6771566,6.10826003 L15.4796933,6.2336584 Z M16.2640836,13.7461139 L13.0864574,13.8395123 L12.5570265,10.9272521 L15.9214494,10.9272521 L16.2640836,13.7461139 Z M23.9583928,23.7977566 C24.7994985,23.7977566 25.5159863,24.5178867 25.5159863,25.363155 C25.5159863,26.2086835 24.7994985,26.9288136 23.9583928,26.9288136 C23.0863277,26.9288136 22.4007992,26.2086835 22.4007992,25.363155 C22.4007992,24.5178867 23.0863277,23.7977566 23.9583928,23.7977566 L23.9583928,23.7977566 Z M6.79390438,26.9288136 C5.92183931,26.9288136 5.236571,26.2086835 5.236571,25.363155 C5.236571,24.5178867 5.92183931,23.7977566 6.79390438,23.7977566 C7.04340033,23.7977566 7.26115643,23.8601956 7.44821335,23.985594 L7.6350101,24.0795127 C8.07104264,24.3615289 8.32053858,24.8311225 8.32053858,25.363155 C8.32053858,26.2086835 7.6350101,26.9288136 6.79390438,26.9288136 L6.79390438,26.9288136 Z M31.2166694,5.57596732 L5.6101645,4.730699 C5.29874986,3.82273149 5.01829457,2.91476398 4.70661976,2.03827615 C4.39546528,1.00491026 3.46070102,0.284780151 2.40157903,0.190861449 L0.625969211,0.0030240441 C0.314554566,-0.0279353066 0.00287975898,0.222341125 0.00287975898,0.535316745 C-0.0280795917,0.848552528 0.189936676,1.13030864 0.501351321,1.16178831 L2.30818065,1.34962572 C2.90005059,1.41206474 3.42974167,1.81895907 3.61627826,2.38247128 C5.20535148,7.23554462 8.91214836,18.5380491 9.13042479,19.1015613 C9.25478252,19.3520979 9.69081505,20.7920979 7.69718897,22.7958704 C7.07435968,22.5765533 6.35787185,22.5141142 5.57920515,22.9524882 C4.76931895,23.3908622 4.14622949,24.2049111 4.08379047,25.1438379 C3.92795306,26.8973339 5.4543271,28.3688136 7.26115643,28.0555779 C8.19592069,27.8992201 9.0058069,27.2214965 9.34844105,26.313529 C9.62863619,25.4994802 9.5040183,24.7158704 9.19260365,24.1955452 L21.5594333,24.1955452 C21.2170593,24.7158704 21.1234008,25.4994802 21.4038561,26.313529 C21.7155309,27.2214965 22.5563765,27.9202933 23.5223602,28.076651 C25.3604091,28.3586673 26.9177425,26.7826022 26.6372872,24.9357078 C26.4814498,23.964781 25.7964416,23.1322606 24.8616774,22.7878053 C24.0830107,22.5060492 23.3353033,22.6345695 22.7434334,22.8947321 L13.3047339,22.8947321 C14.2389778,22.1142443 15.1425226,20.9981467 15.9214494,19.2761304 L26.6997262,18.4373661 C27.8210271,18.3434474 28.7555312,17.5642604 29.0981653,16.4994149 L31.9643768,6.60751208 C32.119954,6.10669905 31.7461004,5.57596732 31.2166694,5.57596732 L31.2166694,5.57596732 Z" id="Trolley"></path>
            </g>
        </g>
    </g>
</svg>