<?xml version="1.0" encoding="UTF-8"?>
<!DOCTYPE svg PUBLIC "-//W3C//DTD SVG 1.1//EN" "http://www.w3.org/Graphics/SVG/1.1/DTD/svg11.dtd">
<!-- Creator: CorelDRAW X6 -->
<svg xmlns="http://www.w3.org/2000/svg" xml:space="preserve" width="2.125in" height="2.76389in" version="1.1" style="shape-rendering:geometricPrecision; text-rendering:geometricPrecision; image-rendering:optimizeQuality; fill-rule:evenodd; clip-rule:evenodd"
viewBox="0 0 2125 2764"
 xmlns:xlink="http://www.w3.org/1999/xlink">
 <defs>
  <style type="text/css">
   <![CDATA[
    .fil0 {fill:#F0E8C8;fill-rule:nonzero}
   ]]>
  </style>
 </defs>
 <g id="Layer_x0020_1">
  <metadata id="CorelCorpID_0Corel-Layer"/>
  <path class="fil0" d="M890 2035c13,7 29,9 44,6 1,0 1,-1 1,-1 20,-59 21,-133 -14,-203 -30,-61 -74,-97 -124,-114 -1,0 -1,1 -1,1 32,22 59,52 78,90 36,74 35,153 13,214 -1,2 0,5 2,6z"/>
  <path class="fil0" d="M1261 402l1 4c0,0 0,1 0,1 -48,33 -95,121 -68,222 30,113 158,590 203,756l49 181c30,114 73,177 132,185 0,0 1,0 1,1l2 4c0,0 0,1 0,1 -30,30 -55,103 -87,171 -32,69 -99,278 -355,376 -279,106 -562,39 -681,-158 -78,-128 -59,-304 68,-375 110,-62 229,-21 274,70 43,88 13,182 -22,213 -7,6 0,19 17,30 74,51 159,48 240,5 104,-55 142,-150 87,-352 -44,-166 -242,-902 -272,-1016 -27,-101 -112,-154 -170,-158 0,0 -1,0 -1,-1l-1 -4c0,0 0,-1 1,-1l585 -157c0,0 1,0 1,1z"/>
  <path class="fil0" d="M1624 1830c-33,84 -82,204 -137,291 0,1 0,2 1,1 60,-48 121,-141 154,-225 21,-53 67,-163 85,-181 1,-1 0,-2 -1,-3 -35,-10 -109,-19 -152,-182 0,0 -218,-813 -248,-927 -24,-89 -3,-143 29,-179 1,-1 0,-2 -1,-1 -58,18 -97,105 -70,204 30,113 245,914 245,914 14,53 33,95 54,125 21,30 50,52 79,58 3,1 7,1 10,1 1,0 2,2 1,3 -2,1 -3,3 -5,5 -14,17 -29,53 -45,94z"/>
  <polygon class="fil0" points="1703,1548 1703,1468 1672,1468 1672,1445 1758,1445 1758,1468 1728,1468 1728,1548 "/>
  <polygon class="fil0" points="1859,1548 1859,1470 1834,1548 1820,1548 1796,1470 1796,1548 1773,1548 1773,1445 1811,1445 1829,1510 1847,1445 1884,1445 1884,1548 "/>
 </g>
</svg>
