<?xml version="1.0" encoding="UTF-8"?><svg xmlns="http://www.w3.org/2000/svg" xmlns:xlink="http://www.w3.org/1999/xlink" width="72px" height="72px" viewBox="0 0 72 72" version="1.1"><title>youtube</title><g id="providers-list" stroke="none" stroke-width="1" fill="none" fill-rule="evenodd"><g id="youtube"><path id="Rectangle-23" fill="#FFF" d="M9 2h55v67H9z"/><rect id="Rectangle-2" fill="#E42B28" x="0" y="0" width="72" height="72" rx="4"/><path d="M61.207 23.73c.333 1.338.793 8.667.793 11.464v.612c0 2.797-.46 10.126-.793 11.464-.99 3.979-2.849 5.512-6.27 6.065-1.973.291-11.44.665-18.954.665h.034c-7.514 0-16.981-.374-18.954-.665-3.421-.554-5.28-2.086-6.27-6.065C10.46 45.932 10 38.603 10 35.806v-.612c0-2.797.46-10.126.793-11.464.99-3.979 2.849-5.511 6.27-6.065 1.973-.291 11.44-.665 18.954-.665h-.034c7.514 0 16.981.374 18.954.665 3.421.553 5.28 2.086 6.27 6.064zM30.6 28.002v14.825l13.813-7.588L30.6 28.003z" id="Fill-4" fill="#FFFFFE"/></g></g><metadata><rdf:RDF xmlns:rdf="http://www.w3.org/1999/02/22-rdf-syntax-ns#" xmlns:rdfs="http://www.w3.org/2000/01/rdf-schema#" xmlns:dc="http://purl.org/dc/elements/1.1/"><rdf:Description about="https://iconscout.com/legal#licenses" dc:title="youtube" dc:description="youtube" dc:publisher="Iconscout" dc:date="2017-09-26" dc:format="image/svg+xml" dc:language="en"><dc:creator><rdf:Bag><rdf:li>Luc Chaffard</rdf:li></rdf:Bag></dc:creator></rdf:Description></rdf:RDF></metadata></svg>